<svg width="71" height="71" viewBox="0 0 71 71" fill="none" xmlns="http://www.w3.org/2000/svg">
<path fill-rule="evenodd" clip-rule="evenodd" d="M66.5625 53.25L62.125 17.75H53.25V13.3125H62.125V0H39.9375V13.3125H48.8125V17.75H8.875L4.4375 53.25H0V71H71V53.25H66.5625ZM44.375 8.875V4.4375H57.6875V8.875H44.375ZM51.0312 26.625C52.2538 26.625 53.25 27.6212 53.25 28.8438C53.25 30.0707 52.2538 31.0625 51.0312 31.0625C49.8087 31.0625 48.8125 30.0707 48.8125 28.8438C48.8125 27.6212 49.8087 26.625 51.0312 26.625ZM51.0312 35.5C52.2538 35.5 53.25 36.4962 53.25 37.7188C53.25 38.9457 52.2538 39.9375 51.0312 39.9375C49.8087 39.9375 48.8125 38.9457 48.8125 37.7188C48.8125 36.4962 49.8087 35.5 51.0312 35.5ZM51.0312 44.375C52.2538 44.375 53.25 45.3712 53.25 46.5938C53.25 47.8207 52.2538 48.8125 51.0312 48.8125C49.8087 48.8125 48.8125 47.8207 48.8125 46.5938C48.8125 45.3712 49.8087 44.375 51.0312 44.375ZM42.1562 26.625C43.3788 26.625 44.375 27.6212 44.375 28.8438C44.375 30.0707 43.3788 31.0625 42.1562 31.0625C40.9337 31.0625 39.9375 30.0707 39.9375 28.8438C39.9375 27.6212 40.9337 26.625 42.1562 26.625ZM42.1562 35.5C43.3788 35.5 44.375 36.4962 44.375 37.7188C44.375 38.9457 43.3788 39.9375 42.1562 39.9375C40.9337 39.9375 39.9375 38.9457 39.9375 37.7188C39.9375 36.4962 40.9337 35.5 42.1562 35.5ZM42.1562 44.375C43.3788 44.375 44.375 45.3712 44.375 46.5938C44.375 47.8207 43.3788 48.8125 42.1562 48.8125C40.9337 48.8125 39.9375 47.8207 39.9375 46.5938C39.9375 45.3712 40.9337 44.375 42.1562 44.375ZM13.3125 26.625H31.0625V35.5H13.3125V26.625ZM66.5625 62.125H4.4375V57.6875H66.5625V62.125Z" fill="white"/>
</svg>
