<svg width="49" height="64" viewBox="0 0 49 64" fill="none" xmlns="http://www.w3.org/2000/svg">
<path d="M47.7105 64C48.4198 64 49 63.424 49 62.72V1.28C49 0.575938 48.4198 0 47.7105 0H1.28947C0.567371 0 0 0.575938 0 1.28V62.72C0 63.424 0.567371 64 1.28947 64H47.7105ZM20.8144 10.6231H42.3451C43.0578 10.6231 43.6346 11.1962 43.6346 11.9031C43.6346 12.61 43.0578 13.1831 42.3451 13.1831H20.8144C20.1017 13.1831 19.5249 12.61 19.5249 11.9031C19.5249 11.1962 20.1017 10.6231 20.8144 10.6231ZM20.8144 24.0231H42.3451C43.0578 24.0231 43.6346 24.5962 43.6346 25.3031C43.6346 26.01 43.0578 26.5831 42.3451 26.5831H20.8144C20.1017 26.5831 19.5249 26.01 19.5249 25.3031C19.5249 24.5962 20.1017 24.0231 20.8144 24.0231ZM20.8144 37.4231H42.3451C43.0578 37.4231 43.6346 37.9963 43.6346 38.7031C43.6346 39.41 43.0578 39.9831 42.3451 39.9831H20.8144C20.1017 39.9831 19.5249 39.41 19.5249 38.7031C19.5249 37.9963 20.1017 37.4231 20.8144 37.4231ZM20.8144 50.8231H42.3451C43.0578 50.8231 43.6346 51.3962 43.6346 52.1031C43.6346 52.81 43.0578 53.3831 42.3451 53.3831H20.8144C20.1017 53.3831 19.5249 52.81 19.5249 52.1031C19.5249 51.3962 20.1017 50.8231 20.8144 50.8231ZM5.73109 11.5381C6.23479 11.0381 7.05079 11.0381 7.55449 11.5381L8.33522 12.3131L11.8964 8.77812C12.4001 8.27812 13.2161 8.27812 13.7198 8.77812C14.2235 9.27812 14.2235 10.0881 13.7198 10.5881L9.24692 15.0281C8.99507 15.2781 8.66515 15.4031 8.33522 15.4031C8.0053 15.4031 7.67537 15.2781 7.42352 15.0281L5.73109 13.3481C5.22739 12.8481 5.22739 12.0381 5.73109 11.5381ZM5.73109 24.9381C6.23479 24.4381 7.05079 24.4381 7.55449 24.9381L8.33522 25.7131L11.8964 22.1781C12.4001 21.6781 13.2161 21.6781 13.7198 22.1781C14.2235 22.6781 14.2235 23.4881 13.7198 23.9881L9.24692 28.4281C8.99507 28.6781 8.66515 28.8031 8.33522 28.8031C8.0053 28.8031 7.67537 28.6781 7.42352 28.4281L5.73109 26.7481C5.22739 26.2481 5.22739 25.4381 5.73109 24.9381ZM5.73109 38.3381C6.23479 37.8381 7.05079 37.8381 7.55449 38.3381L8.33522 39.1131L11.8964 35.5781C12.4001 35.0781 13.2161 35.0781 13.7198 35.5781C14.2235 36.0781 14.2235 36.8881 13.7198 37.3881L9.24692 41.8281C8.99507 42.0781 8.66515 42.2031 8.33522 42.2031C8.0053 42.2031 7.67537 42.0781 7.42352 41.8281L5.73109 40.1481C5.22739 39.6481 5.22739 38.8381 5.73109 38.3381ZM5.73109 51.7381C6.23479 51.2381 7.05079 51.2381 7.55449 51.7381L8.33522 52.5131L11.8964 48.9781C12.4001 48.4781 13.2161 48.4781 13.7198 48.9781C14.2235 49.4781 14.2235 50.2881 13.7198 50.7881L9.24692 55.2281C8.99507 55.4781 8.66515 55.6031 8.33522 55.6031C8.0053 55.6031 7.67537 55.4781 7.42352 55.2281L5.73109 53.5481C5.22739 53.0481 5.22739 52.2381 5.73109 51.7381Z" fill="white"/>
</svg>
