<svg width="67" height="58" viewBox="0 0 67 58" fill="none" xmlns="http://www.w3.org/2000/svg">
<path d="M60.6201 0.203613H51.6967V8.0208C51.6967 10.4544 49.7055 12.4456 47.2718 12.4456C44.8382 12.4456 42.847 10.4544 42.847 8.0208V0.203613H23.6728V8.0208C23.6728 10.4544 21.6816 12.4456 19.248 12.4456C16.8143 12.4456 14.8232 10.4544 14.8232 8.0208V0.203613H5.89976C2.65489 0.203613 0 2.85851 0 6.10337V51.9003C0 55.1451 2.65489 57.8 5.89976 57.8H60.6201C63.8649 57.8 66.5198 55.1451 66.5198 51.9003V6.10337C66.5198 2.85851 63.8649 0.203613 60.6201 0.203613ZM21.0917 49.7616H7.15346V35.8234H21.0917V49.7616ZM21.0917 30.8086H7.15346V16.8704H21.0917V30.8086ZM40.1921 49.7616H26.2539V35.8234H40.1921V49.7616ZM40.1921 30.8086H26.2539V16.8704H40.1921V30.8086ZM59.3664 49.7616H45.4282V35.8234H59.3664V49.7616ZM59.3664 30.8086H45.4282V16.8704H59.3664V30.8086Z" fill="white"/>
</svg>
